ffmpeg started on 2016-11-30 at 17:20:22
Report written to "Output/x264/results/ffmpeg/old_town_cross_2160p50fast5000k.log"
Command line:
Tools/ffmpeg/ffmpeg -benchmark -y -i Input/y4m/old_town_cross_2160p50.y4m -c:v libx264 -preset fast -b:v 5000k -an Output/x264/encoded/old_town_cross_2160p50fast5000k.mkv
ffmpeg version N-82227-gdb23fde Copyright (c) 2000-2016 the FFmpeg developers
  built with gcc 5.4.0 (Ubuntu 5.4.0-6ubuntu1~16.04.2) 20160609
  configuration: --prefix=/home/jaroslav/ffmpeg_build --pkg-config-flags=--static --extra-cflags=-I/home/jaroslav/ffmpeg_build/include --extra-ldflags=-L/home/jaroslav/ffmpeg_build/lib --bindir=/home/jaroslav/bin --enable-gpl --enable-libass --enable-libfdk-aac --enable-libfreetype --enable-libmp3lame --enable-libopus --enable-libtheora --enable-libvorbis --enable-libvpx --enable-libx264 --enable-libx265 --enable-nvenc --enable-libmfx --enable-libxvid --enable-libgsm --enable-libopencore-amrnb --enable-version3 --enable-nonfree
  libavutil      55. 35.100 / 55. 35.100
  libavcodec     57. 66.101 / 57. 66.101
  libavformat    57. 57.100 / 57. 57.100
  libavdevice    57.  2.100 / 57.  2.100
  libavfilter     6. 66.100 /  6. 66.100
  libswscale      4.  3.100 /  4.  3.100
  libswresample   2.  4.100 /  2.  4.100
  libpostproc    54.  2.100 / 54.  2.100
Input #0, yuv4mpegpipe, from 'Input/y4m/old_town_cross_2160p50.y4m':
  Duration: 00:00:10.00, start: 0.000000, bitrate: 4976642 kb/s
    Stream #0:0: Video: rawvideo (I420 / 0x30323449), yuv420p(progressive), 3840x2160, SAR 1:1 DAR 16:9, 50 fps, 50 tbr, 50 tbn, 50 tbc
[libx264 @ 0x3a87120] using SAR=1/1
[libx264 @ 0x3a87120] using cpu capabilities: MMX2 SSE2Fast SSSE3 SSE4.2 AVX FMA3 AVX2 LZCNT BMI2
[libx264 @ 0x3a87120] profile High, level 5.2
[libx264 @ 0x3a87120] 264 - core 148 - H.264/MPEG-4 AVC codec - Copyleft 2003-2016 - http://www.videolan.org/x264.html - options: cabac=1 ref=2 deblock=1:0:0 analyse=0x3:0x113 me=hex subme=6 psy=1 psy_rd=1.00:0.00 mixed_ref=1 me_range=16 chroma_me=1 trellis=1 8x8dct=1 cqm=0 deadzone=21,11 fast_pskip=1 chroma_qp_offset=-2 threads=6 lookahead_threads=1 sliced_threads=0 nr=0 decimate=1 interlaced=0 bluray_compat=0 constrained_intra=0 bframes=3 b_pyramid=2 b_adapt=1 b_bias=0 direct=1 weightb=1 open_gop=0 weightp=1 keyint=250 keyint_min=25 scenecut=40 intra_refresh=0 rc_lookahead=30 rc=abr mbtree=1 bitrate=5000 ratetol=1.0 qcomp=0.60 qpmin=0 qpmax=69 qpstep=4 ip_ratio=1.40 aq=1:1.00
Output #0, matroska, to 'Output/x264/encoded/old_town_cross_2160p50fast5000k.mkv':
  Metadata:
    encoder         : Lavf57.57.100
    Stream #0:0: Video: h264 (libx264) (H264 / 0x34363248), yuv420p, 3840x2160 [SAR 1:1 DAR 16:9], q=-1--1, 5000 kb/s, 50 fps, 1k tbn, 50 tbc
    Metadata:
      encoder         : Lavc57.66.101 libx264
    Side data:
      cpb: bitrate max/min/avg: 0/0/5000000 buffer size: 0 vbv_delay: -1
Stream mapping:
  Stream #0:0 -> #0:0 (rawvideo (native) -> h264 (libx264))
Press [q] to stop, [?] for help
frame=   37 fps= 20 q=0.0 size=       0kB time=00:00:00.00 bitrate=N/A speed=   0x    frame=   46 fps= 19 q=44.0 size=       1kB time=00:00:00.06 bitrate=  96.3kbits/s speed=0.025x    frame=   57 fps= 19 q=40.0 size=       1kB time=00:00:00.28 bitrate=  20.9kbits/s speed=0.0952x    frame=   66 fps= 18 q=39.0 size=       1kB time=00:00:00.46 bitrate=  12.7kbits/s speed=0.126x    frame=   75 fps= 18 q=39.0 size=       1kB time=00:00:00.64 bitrate=   9.2kbits/s speed=0.154x    frame=   85 fps= 18 q=38.0 size=       1kB time=00:00:00.84 bitrate=   7.0kbits/s speed=0.181x    frame=   94 fps= 18 q=38.0 size=       1kB time=00:00:01.02 bitrate=   5.8kbits/s speed=0.191x    frame=  104 fps= 18 q=38.0 size=       1kB time=00:00:01.22 bitrate=   4.8kbits/s speed=0.209x    frame=  114 fps= 17 q=38.0 size=       1kB time=00:00:01.42 bitrate=   4.1kbits/s speed=0.216x    frame=  124 fps= 18 q=37.0 size=       1kB time=00:00:01.62 bitrate=   3.6kbits/s speed=0.229x    frame=  134 fps= 17 q=37.0 size=       1kB time=00:00:01.82 bitrate=   3.2kbits/s speed=0.234x    frame=  145 fps= 18 q=37.0 size=       1kB time=00:00:02.04 bitrate=   2.9kbits/s speed=0.246x    frame=  154 fps= 17 q=37.0 size=       1kB time=00:00:02.22 bitrate=   2.6kbits/s speed=0.247x    frame=  165 fps= 17 q=37.0 size=       1kB time=00:00:02.44 bitrate=   2.4kbits/s speed=0.256x    frame=  174 fps= 17 q=37.0 size=       1kB time=00:00:02.62 bitrate=   2.2kbits/s speed=0.257x    frame=  185 fps= 17 q=37.0 size=       1kB time=00:00:02.84 bitrate=   2.1kbits/s speed=0.266x    frame=  194 fps= 17 q=37.0 size=       1kB time=00:00:03.02 bitrate=   1.9kbits/s speed=0.265x    frame=  205 fps= 17 q=37.0 size=       1kB time=00:00:03.24 bitrate=   1.8kbits/s speed=0.272x    frame=  214 fps= 17 q=37.0 size=       1kB time=00:00:03.42 bitrate=   1.7kbits/s speed=0.271x    frame=  224 fps= 17 q=37.0 size=       1kB time=00:00:03.62 bitrate=   1.6kbits/s speed=0.276x    frame=  234 fps= 17 q=37.0 size=       1kB time=00:00:03.82 bitrate=   1.5kbits/s speed=0.276x    frame=  244 fps= 17 q=37.0 size=       1kB time=00:00:04.02 bitrate=   1.5kbits/s speed=0.281x    frame=  252 fps= 16 q=37.0 size=       1kB time=00:00:04.18 bitrate=   1.4kbits/s speed=0.267x    frame=  254 fps= 16 q=37.0 size=       1kB time=00:00:04.22 bitrate=   1.4kbits/s speed=0.259x    frame=  256 fps= 15 q=37.0 size=       1kB time=00:00:04.26 bitrate=   1.4kbits/s speed=0.252x    frame=  261 fps= 15 q=37.0 size=       1kB time=00:00:04.36 bitrate=   1.3kbits/s speed=0.25x    frame=  266 fps= 15 q=37.0 size=       1kB time=00:00:04.46 bitrate=   1.3kbits/s speed=0.247x    frame=  271 fps= 15 q=37.0 size=       1kB time=00:00:04.56 bitrate=   1.3kbits/s speed=0.245x    frame=  276 fps= 14 q=37.0 size=       1kB time=00:00:04.66 bitrate=   1.3kbits/s speed=0.242x    frame=  281 fps= 14 q=37.0 size=       1kB time=00:00:04.76 bitrate=   1.2kbits/s speed=0.24x    frame=  285 fps= 14 q=34.0 size=       1kB time=00:00:04.84 bitrate=   1.2kbits/s speed=0.238x    frame=  295 fps= 14 q=37.0 size=    2823kB time=00:00:05.04 bitrate=4586.9kbits/s speed=0.241x    frame=  305 fps= 14 q=37.0 size=    2823kB time=00:00:05.24 bitrate=4411.9kbits/s speed=0.244x    frame=  315 fps= 14 q=37.0 size=    2823kB time=00:00:05.44 bitrate=4249.7kbits/s speed=0.245x    frame=  324 fps= 14 q=37.0 size=    2823kB time=00:00:05.62 bitrate=4113.6kbits/s speed=0.248x    frame=  334 fps= 14 q=37.0 size=    2823kB time=00:00:05.82 bitrate=3972.3kbits/s speed=0.251x    frame=  342 fps= 14 q=37.0 size=    2823kB time=00:00:05.98 bitrate=3866.0kbits/s speed=0.252x    frame=  351 fps= 14 q=37.0 size=    2823kB time=00:00:06.16 bitrate=3753.1kbits/s speed=0.253x    frame=  361 fps= 15 q=37.0 size=    2823kB time=00:00:06.36 bitrate=3635.1kbits/s speed=0.256x    frame=  371 fps= 14 q=37.0 size=    2823kB time=00:00:06.56 bitrate=3524.3kbits/s speed=0.256x    frame=  381 fps= 15 q=37.0 size=    2823kB time=00:00:06.76 bitrate=3420.0kbits/s speed=0.259x    frame=  389 fps= 15 q=37.0 size=    2823kB time=00:00:06.92 bitrate=3340.9kbits/s speed=0.26x    frame=  398 fps= 15 q=37.0 size=    2823kB time=00:00:07.10 bitrate=3256.3kbits/s speed=0.262x    frame=  407 fps= 15 q=37.0 size=    2823kB time=00:00:07.28 bitrate=3175.8kbits/s speed=0.262x    frame=  418 fps= 15 q=37.0 size=    2823kB time=00:00:07.50 bitrate=3082.6kbits/s speed=0.265x    frame=  427 fps= 15 q=37.0 size=    2823kB time=00:00:07.68 bitrate=3010.4kbits/s speed=0.265x    frame=  438 fps= 15 q=37.0 size=    2823kB time=00:00:07.90 bitrate=2926.6kbits/s speed=0.268x    frame=  447 fps= 15 q=37.0 size=    2823kB time=00:00:08.08 bitrate=2861.4kbits/s speed=0.268x    frame=  457 fps= 15 q=37.0 size=    2823kB time=00:00:08.28 bitrate=2792.3kbits/s speed=0.27x    frame=  467 fps= 15 q=37.0 size=    2823kB time=00:00:08.48 bitrate=2726.4kbits/s speed=0.27x    frame=  477 fps= 15 q=37.0 size=    2823kB time=00:00:08.68 bitrate=2663.6kbits/s speed=0.272x    frame=  486 fps= 15 q=37.0 size=    2823kB time=00:00:08.86 bitrate=2609.5kbits/s speed=0.273x    frame=  493 fps= 15 q=37.0 size=    2823kB time=00:00:09.00 bitrate=2568.9kbits/s speed=0.267x    frame=  495 fps= 14 q=37.0 size=    2823kB time=00:00:09.04 bitrate=2557.5kbits/s speed=0.263x    frame=  497 fps= 14 q=38.0 size=    2823kB time=00:00:09.08 bitrate=2546.3kbits/s speed=0.26x    frame=  500 fps= 13 q=-1.0 Lsize=    6110kB time=00:00:09.94 bitrate=5035.4kbits/s speed=0.268x    
video:6106kB audio:0kB subtitle:0kB other streams:0kB global headers:0kB muxing overhead: 0.071346%
bench: utime=114.280s
bench: maxrss=1604592kB
[libx264 @ 0x3a87120] frame I:3     Avg QP:33.96  size:165742
[libx264 @ 0x3a87120] frame P:183   Avg QP:35.49  size: 16025
[libx264 @ 0x3a87120] frame B:314   Avg QP:37.48  size:  8987
[libx264 @ 0x3a87120] consecutive B-frames: 16.0%  0.8%  0.0% 83.2%
[libx264 @ 0x3a87120] mb I  I16..4: 16.5% 71.0% 12.4%
[libx264 @ 0x3a87120] mb P  I16..4:  0.2%  0.1%  0.0%  P16..4: 17.7%  1.1%  0.9%  0.0%  0.0%    skip:80.0%
[libx264 @ 0x3a87120] mb B  I16..4:  0.2%  0.1%  0.0%  B16..8: 11.5%  0.3%  0.0%  direct: 5.8%  skip:82.1%  L0:33.1% L1:66.8% BI: 0.2%
[libx264 @ 0x3a87120] final ratefactor: 29.49
[libx264 @ 0x3a87120] 8x8 transform intra:57.7% inter:91.8%
[libx264 @ 0x3a87120] coded y,uvDC,uvAC intra: 31.7% 38.3% 14.7% inter: 2.6% 2.6% 0.0%
[libx264 @ 0x3a87120] i16 v,h,dc,p: 46% 38%  8%  8%
[libx264 @ 0x3a87120] i8 v,h,dc,ddl,ddr,vr,hd,vl,hu: 22% 20% 34%  3%  4%  3%  6%  3%  5%
[libx264 @ 0x3a87120] i4 v,h,dc,ddl,ddr,vr,hd,vl,hu: 24% 33% 10%  5%  6%  5%  8%  3%  5%
[libx264 @ 0x3a87120] i8c dc,h,v,p: 76% 11% 12%  1%
[libx264 @ 0x3a87120] Weighted P-Frames: Y:0.5% UV:0.0%
[libx264 @ 0x3a87120] ref P L0: 82.9% 17.1%
[libx264 @ 0x3a87120] ref B L0: 91.6%  8.4%
[libx264 @ 0x3a87120] ref B L1: 96.7%  3.3%
[libx264 @ 0x3a87120] kb/s:5001.52
